<mxfile host="app.diagrams.net" agent="Mozilla/5.0 (X11; Ubuntu; Linux x86_64; rv:137.0) Gecko/20100101 Firefox/137.0" version="26.2.14">
  <diagram name="Page-1" id="c7558073-3199-34d8-9f00-42111426c3f3">
    <mxGraphModel dx="1599" dy="847" grid="1" gridSize="10" guides="1" tooltips="1" connect="1" arrows="1" fold="1" page="1" pageScale="1" pageWidth="826" pageHeight="1169" background="none" math="0" shadow="0">
      <root>
        <mxCell id="0" />
        <mxCell id="1" parent="0" />
        <mxCell id="St-y6j0PKIIlln3tticx-105" value="" style="edgeStyle=none;curved=1;rounded=0;orthogonalLoop=1;jettySize=auto;html=1;fontSize=12;startSize=8;endSize=8;" edge="1" parent="1" source="St-y6j0PKIIlln3tticx-96" target="St-y6j0PKIIlln3tticx-98">
          <mxGeometry relative="1" as="geometry" />
        </mxCell>
        <mxCell id="St-y6j0PKIIlln3tticx-96" value="&lt;b&gt;Dataset API*&lt;/b&gt;" style="rounded=0;whiteSpace=wrap;html=1;" vertex="1" parent="1">
          <mxGeometry x="310.25" y="260" width="190" height="50" as="geometry" />
        </mxCell>
        <mxCell id="St-y6j0PKIIlln3tticx-106" value="" style="edgeStyle=none;curved=1;rounded=0;orthogonalLoop=1;jettySize=auto;html=1;fontSize=12;startSize=8;endSize=8;" edge="1" parent="1" source="St-y6j0PKIIlln3tticx-98" target="St-y6j0PKIIlln3tticx-99">
          <mxGeometry relative="1" as="geometry" />
        </mxCell>
        <mxCell id="St-y6j0PKIIlln3tticx-98" value="&lt;div&gt;&lt;b&gt;Airflow DAGs&lt;/b&gt;&lt;/div&gt;&lt;div&gt;- Data Ingestion&lt;/div&gt;&lt;div&gt;- Data preprocessing&lt;/div&gt;" style="rounded=0;whiteSpace=wrap;html=1;" vertex="1" parent="1">
          <mxGeometry x="310" y="360" width="195" height="70" as="geometry" />
        </mxCell>
        <mxCell id="St-y6j0PKIIlln3tticx-107" value="" style="edgeStyle=none;curved=1;rounded=0;orthogonalLoop=1;jettySize=auto;html=1;fontSize=12;startSize=8;endSize=8;" edge="1" parent="1" source="St-y6j0PKIIlln3tticx-99" target="St-y6j0PKIIlln3tticx-103">
          <mxGeometry relative="1" as="geometry" />
        </mxCell>
        <mxCell id="St-y6j0PKIIlln3tticx-99" value="&lt;div&gt;&lt;b&gt;DVC &lt;/b&gt;&lt;br&gt;&lt;/div&gt;&lt;div&gt;- For versioning data&lt;/div&gt;&lt;div&gt;&lt;br&gt;&lt;/div&gt;&lt;div&gt;&lt;i&gt;-set as a cronjob&lt;/i&gt;&lt;/div&gt;" style="rounded=0;whiteSpace=wrap;html=1;" vertex="1" parent="1">
          <mxGeometry x="316" y="470" width="182.5" height="70" as="geometry" />
        </mxCell>
        <mxCell id="St-y6j0PKIIlln3tticx-108" value="" style="edgeStyle=none;curved=1;rounded=0;orthogonalLoop=1;jettySize=auto;html=1;fontSize=12;startSize=8;endSize=8;" edge="1" parent="1" source="St-y6j0PKIIlln3tticx-103" target="St-y6j0PKIIlln3tticx-104">
          <mxGeometry relative="1" as="geometry" />
        </mxCell>
        <mxCell id="St-y6j0PKIIlln3tticx-103" value="&lt;div&gt;&lt;b&gt;Model Building&lt;/b&gt;&lt;/div&gt;&lt;div&gt;- Data processing&lt;/div&gt;&lt;div&gt;- MLFlow experimentaion&lt;/div&gt;&lt;div&gt;&lt;br&gt;&lt;/div&gt;&lt;div&gt;&lt;i&gt;-Saves the best model and encoders and scaler&lt;/i&gt;&lt;/div&gt;" style="rounded=0;whiteSpace=wrap;html=1;" vertex="1" parent="1">
          <mxGeometry x="245" y="600" width="324" height="90" as="geometry" />
        </mxCell>
        <mxCell id="St-y6j0PKIIlln3tticx-104" value="&lt;div&gt;&lt;b&gt;Model Serving&lt;/b&gt;&lt;/div&gt;&lt;div&gt;- Frontend - streamlit&lt;/div&gt;&lt;div&gt;- Backend - FastAPI&lt;br&gt;&lt;br&gt;&lt;i&gt;-Allows for both single and batch predictions&lt;/i&gt;&lt;/div&gt;" style="rounded=0;whiteSpace=wrap;html=1;" vertex="1" parent="1">
          <mxGeometry x="230" y="740" width="355" height="80" as="geometry" />
        </mxCell>
        <mxCell id="St-y6j0PKIIlln3tticx-109" value="&lt;div&gt;&lt;b&gt;Patient Readmission Prediction &lt;/b&gt;&lt;br&gt;&lt;/div&gt;&lt;div&gt;&lt;br&gt;&lt;/div&gt;&lt;div&gt;&lt;i&gt;&amp;nbsp;ML Pipeline&lt;/i&gt;&lt;/div&gt;" style="text;strokeColor=none;fillColor=none;html=1;align=center;verticalAlign=middle;whiteSpace=wrap;rounded=0;fontSize=16;" vertex="1" parent="1">
          <mxGeometry x="189.75" y="120" width="431" height="80" as="geometry" />
        </mxCell>
        <mxCell id="St-y6j0PKIIlln3tticx-110" value="" style="shape=datastore;whiteSpace=wrap;html=1;" vertex="1" parent="1">
          <mxGeometry x="245" y="262.5" width="40" height="45" as="geometry" />
        </mxCell>
        <mxCell id="St-y6j0PKIIlln3tticx-111" value="" style="shape=image;html=1;verticalLabelPosition=bottom;verticalAlign=top;imageAspect=1;aspect=fixed;image=img/clipart/Gear_128x128.png" vertex="1" parent="1">
          <mxGeometry x="170" y="620" width="46.89" height="55" as="geometry" />
        </mxCell>
        <mxCell id="St-y6j0PKIIlln3tticx-112" value="" style="shape=actor;whiteSpace=wrap;html=1;" vertex="1" parent="1">
          <mxGeometry x="170" y="750" width="40" height="60" as="geometry" />
        </mxCell>
        <mxCell id="St-y6j0PKIIlln3tticx-113" value="" style="shape=singleArrow;direction=south;whiteSpace=wrap;html=1;arrowWidth=0.32;arrowSize=0.4166666666666667;" vertex="1" parent="1">
          <mxGeometry x="240" y="360" width="50" height="60" as="geometry" />
        </mxCell>
        <mxCell id="St-y6j0PKIIlln3tticx-114" value="" style="shape=note;whiteSpace=wrap;html=1;backgroundOutline=1;fontColor=#000000;darkOpacity=0.05;fillColor=#FFF9B2;strokeColor=none;fillStyle=solid;direction=west;gradientDirection=north;gradientColor=#FFF2A1;shadow=1;size=25;pointerEvents=1;" vertex="1" parent="1">
          <mxGeometry x="230" y="475" width="60" height="60" as="geometry" />
        </mxCell>
      </root>
    </mxGraphModel>
  </diagram>
</mxfile>
